<?xml version="1.0" encoding="UTF-8"?>
<!-- Created with Inkscape (http://www.inkscape.org/) -->
<svg width="67.733mm" height="67.733mm" version="1.1" viewBox="0 0 67.733 67.733" xml:space="preserve" xmlns="http://www.w3.org/2000/svg"><g transform="translate(-73.156 -63.488)"><rect x="73.156" y="63.488" width="67.733" height="67.733" fill="#77b900" fill-rule="evenodd" stroke-width=".0045736"/><g transform="matrix(.16818 0 0 .16818 73.138 70.823)" fill="#fff"><path d="m384.2 282.11c0 3.771-2.769 6.302-6.047 6.302v-0.023c-3.371 0.023-6.089-2.508-6.089-6.278 0-3.769 2.718-6.293 6.089-6.293 3.279-1e-3 6.047 2.523 6.047 6.292zm2.453 0c0-5.175-4.02-8.179-8.5-8.179-4.511 0-8.531 3.004-8.531 8.179 0 5.172 4.021 8.188 8.531 8.188 4.481 0 8.5-3.016 8.5-8.188m-9.91 0.692h0.91l2.109 3.703h2.316l-2.336-3.859c1.207-0.086 2.2-0.661 2.2-2.286 0-2.019-1.392-2.668-3.75-2.668h-3.411v8.813h1.961v-3.703m1e-3 -1.492v-2.122h1.364c0.742 0 1.753 0.06 1.753 0.965 0 0.985-0.523 1.157-1.398 1.157h-1.719"/><path d="m329.41 237.03 10.598 28.993h-21.524zm-11.35-11.289-24.423 61.88h17.246l3.863-10.934h28.903l3.656 10.934h18.722l-24.605-61.888zm-49.033 61.903h17.497v-61.922l-17.5-4e-3zm-121.47-61.926-14.598 49.078-13.984-49.074-18.879-4e-3 19.972 61.926h25.207l20.133-61.926zm70.725 13.484h7.52c10.91 0 17.966 4.898 17.966 17.609 0 12.714-7.056 17.613-17.966 17.613h-7.52zm-17.35-13.484v61.926h28.366c15.113 0 20.048-2.512 25.384-8.148 3.769-3.957 6.207-12.641 6.207-22.134 0-8.707-2.063-16.468-5.66-21.304-6.481-8.649-15.817-10.34-29.75-10.34zm-165.74-0.086v62.012h17.645v-47.086l13.672 4e-3c4.527 0 7.754 1.128 9.934 3.457 2.765 2.945 3.894 7.699 3.894 16.395v27.23h17.098v-34.262c0-24.453-15.586-27.75-30.836-27.75h-31.407zm137.58 0.086 7e-3 61.926h17.489v-61.926z"/><path d="m82.211 102.41s22.504-33.203 67.437-36.638v-12.046c-49.769 3.997-92.867 46.149-92.867 46.149s24.41 70.565 92.867 77.026v-12.804c-50.237-6.32-67.437-61.687-67.437-61.687zm67.437 36.223v11.726c-37.968-6.769-48.507-46.237-48.507-46.237s18.23-20.195 48.507-23.47v12.867c-0.023 0-0.039-7e-3 -0.058-7e-3 -15.891-1.907-28.305 12.938-28.305 12.938s6.958 24.991 28.363 32.183m0-107.12v22.218c1.461-0.112 2.922-0.207 4.391-0.257 56.582-1.907 93.449 46.406 93.449 46.406s-42.343 51.488-86.457 51.488c-4.043 0-7.828-0.375-11.383-1.005v13.739c3.04 0.386 6.192 0.613 9.481 0.613 41.051 0 70.738-20.965 99.484-45.778 4.766 3.817 24.278 13.103 28.289 17.168-27.332 22.883-91.031 41.329-127.14 41.329-3.481 0-6.824-0.211-10.11-0.528v19.306h156.03v-164.7zm0 49.144v-14.879c1.446-0.101 2.903-0.179 4.391-0.226 40.688-1.278 67.382 34.965 67.382 34.965s-28.832 40.043-59.746 40.043c-4.449 0-8.438-0.715-12.028-1.922v-45.114c15.84 1.914 19.028 8.911 28.551 24.786l21.18-17.859s-15.461-20.277-41.524-20.277c-2.833-1e-3 -5.544 0.198-8.206 0.483"/></g></g></svg>
